<svg width="94" height="28" viewBox="0 0 94 28" fill="none" xmlns="http://www.w3.org/2000/svg">
<path d="M1.76989 25V4.63636H9.80398C11.3485 4.63636 12.6643 4.93134 13.7514 5.52131C14.8385 6.10464 15.6671 6.91666 16.2372 7.95738C16.8139 8.99148 17.1023 10.1847 17.1023 11.5369C17.1023 12.8892 16.8106 14.0824 16.2273 15.1165C15.6439 16.1506 14.7988 16.956 13.6918 17.5327C12.5914 18.1094 11.259 18.3977 9.6946 18.3977H4.57386V14.9474H8.99858C9.82718 14.9474 10.5099 14.8049 11.0469 14.5199C11.5904 14.2282 11.9948 13.8272 12.2599 13.3168C12.5317 12.7997 12.6676 12.2064 12.6676 11.5369C12.6676 10.8608 12.5317 10.2708 12.2599 9.76704C11.9948 9.25663 11.5904 8.86221 11.0469 8.58381C10.5033 8.29877 9.81392 8.15625 8.97869 8.15625H6.07528V25H1.76989ZM18.6992 25V9.72727H22.8058V12.392H22.9649C23.2433 11.4441 23.7106 10.7282 24.3669 10.2443C25.0231 9.75379 25.7788 9.50852 26.6339 9.50852C26.846 9.50852 27.0747 9.52178 27.32 9.54829C27.5653 9.57481 27.7807 9.61127 27.9663 9.65767V13.4162C27.7674 13.3565 27.4923 13.3035 27.141 13.2571C26.7897 13.2107 26.4682 13.1875 26.1765 13.1875C25.5534 13.1875 24.9966 13.3234 24.5061 13.5952C24.0222 13.8603 23.6377 14.2315 23.3527 14.7088C23.0742 15.1861 22.935 15.7363 22.935 16.3594V25H18.6992ZM33.2721 16.1705V25H29.0363V9.72727H33.0732V12.4219H33.2522C33.5903 11.5336 34.157 10.831 34.9525 10.3139C35.7479 9.79024 36.7124 9.52841 37.8459 9.52841C38.9065 9.52841 39.8313 9.76042 40.6201 10.2244C41.4089 10.6884 42.0221 11.3513 42.4596 12.2131C42.8971 13.0682 43.1158 14.089 43.1158 15.2756V25H38.88V16.0312C38.8867 15.0966 38.648 14.3674 38.1641 13.8437C37.6802 13.3134 37.014 13.0483 36.1655 13.0483C35.5955 13.0483 35.0917 13.1709 34.6542 13.4162C34.2233 13.6615 33.8852 14.0194 33.64 14.4901C33.4013 14.9541 33.2787 15.5142 33.2721 16.1705ZM53.4578 9.72727V12.9091H44.2604V9.72727H53.4578ZM46.3485 6.06818H50.5843V20.3068C50.5843 20.6979 50.6439 21.0028 50.7632 21.2216C50.8825 21.4337 51.0483 21.5829 51.2604 21.669C51.4791 21.7552 51.731 21.7983 52.0161 21.7983C52.2149 21.7983 52.4138 21.7817 52.6127 21.7486C52.8115 21.7088 52.964 21.679 53.07 21.6591L53.7362 24.8111C53.5241 24.8774 53.2258 24.9536 52.8414 25.0398C52.4569 25.1326 51.9896 25.1889 51.4394 25.2088C50.4185 25.2486 49.5236 25.1127 48.7547 24.8011C47.9924 24.4896 47.3991 24.0057 46.9749 23.3494C46.5506 22.6932 46.3418 21.8646 46.3485 20.8636V6.06818ZM59.661 16.1705V25H55.4252V4.63636H59.5417V12.4219H59.7206C60.0653 11.5204 60.6222 10.8144 61.3911 10.304C62.16 9.78693 63.1245 9.52841 64.2846 9.52841C65.3452 9.52841 66.2699 9.76042 67.0587 10.2244C67.8542 10.6818 68.4706 11.3414 68.9081 12.2031C69.3523 13.0582 69.571 14.0824 69.5644 15.2756V25H65.3286V16.0312C65.3352 15.09 65.0966 14.3575 64.6127 13.8338C64.1354 13.3101 63.4659 13.0483 62.6042 13.0483C62.0275 13.0483 61.517 13.1709 61.0729 13.4162C60.6354 13.6615 60.2907 14.0194 60.0388 14.4901C59.7936 14.9541 59.6676 15.5142 59.661 16.1705ZM77.4057 25.2486C76.2457 25.2486 75.195 24.9503 74.2537 24.3537C73.319 23.7505 72.5766 22.8655 72.0264 21.6989C71.4829 20.5256 71.2111 19.0871 71.2111 17.3835C71.2111 15.6335 71.4928 14.1785 72.0563 13.0185C72.6197 11.8518 73.3688 10.9801 74.3034 10.4034C75.2447 9.82007 76.2755 9.52841 77.3957 9.52841C78.2509 9.52841 78.9635 9.67424 79.5335 9.96591C80.1102 10.2509 80.5743 10.6089 80.9256 11.0398C81.2835 11.464 81.5553 11.8816 81.7409 12.2926H81.8702V4.63636H86.096V25H81.9199V22.554H81.7409C81.5421 22.9782 81.2603 23.3991 80.8957 23.8168C80.5378 24.2277 80.0705 24.5691 79.4938 24.8409C78.9237 25.1127 78.2277 25.2486 77.4057 25.2486ZM78.748 21.8778C79.4308 21.8778 80.0075 21.6922 80.4781 21.321C80.9554 20.9432 81.32 20.4162 81.5719 19.7401C81.8304 19.0639 81.9597 18.2718 81.9597 17.3636C81.9597 16.4555 81.8337 15.6667 81.5818 14.9972C81.3299 14.3277 80.9654 13.8106 80.4881 13.446C80.0108 13.0814 79.4308 12.8991 78.748 12.8991C78.052 12.8991 77.4654 13.0881 76.9881 13.4659C76.5108 13.8437 76.1495 14.3674 75.9043 15.0369C75.659 15.7064 75.5364 16.482 75.5364 17.3636C75.5364 18.2519 75.659 19.0374 75.9043 19.7202C76.1562 20.3963 76.5174 20.9266 76.9881 21.3111C77.4654 21.6889 78.052 21.8778 78.748 21.8778Z" fill="#191918"/>
<path d="M89.8786 5.11932V2.49858H91.1357C91.2682 2.49858 91.3961 2.53054 91.5192 2.59446C91.6446 2.65601 91.7476 2.74834 91.8281 2.87145C91.911 2.99219 91.9524 3.14134 91.9524 3.31889C91.9524 3.49645 91.9098 3.65033 91.8246 3.78054C91.7417 3.90838 91.6352 4.00663 91.505 4.07528C91.3771 4.14394 91.2446 4.17827 91.1072 4.17827H90.1342V3.8196H90.9865C91.1072 3.8196 91.215 3.77699 91.3097 3.69176C91.4067 3.60417 91.4553 3.47988 91.4553 3.31889C91.4553 3.15317 91.4067 3.0348 91.3097 2.96378C91.215 2.89276 91.1108 2.85724 90.9972 2.85724H90.3366V5.11932H89.8786ZM91.4055 3.90128L92.0589 5.11932H91.5476L90.9119 3.90128H91.4055ZM90.8409 6.68182C90.4479 6.68182 90.0798 6.60843 89.7365 6.46165C89.3932 6.31487 89.0914 6.11127 88.831 5.85085C88.5705 5.59044 88.367 5.28859 88.2202 4.94531C88.0734 4.60204 88 4.2339 88 3.84091C88 3.44792 88.0734 3.07978 88.2202 2.73651C88.367 2.39323 88.5705 2.09138 88.831 1.83097C89.0914 1.57055 89.3932 1.36695 89.7365 1.22017C90.0798 1.07339 90.4479 1 90.8409 1C91.2339 1 91.602 1.07339 91.9453 1.22017C92.2886 1.36695 92.5904 1.57055 92.8509 1.83097C93.1113 2.09138 93.3149 2.39323 93.4616 2.73651C93.6084 3.07978 93.6818 3.44792 93.6818 3.84091C93.6818 4.2339 93.6084 4.60204 93.4616 4.94531C93.3149 5.28859 93.1113 5.59044 92.8509 5.85085C92.5904 6.11127 92.2886 6.31487 91.9453 6.46165C91.602 6.60843 91.2339 6.68182 90.8409 6.68182ZM90.8409 6.1527C91.267 6.1527 91.6541 6.04853 92.0021 5.8402C92.3525 5.63187 92.6319 5.35369 92.8402 5.00568C93.0485 4.6553 93.1527 4.26705 93.1527 3.84091C93.1527 3.41477 93.0485 3.0277 92.8402 2.67969C92.6319 2.32931 92.3525 2.04995 92.0021 1.84162C91.6541 1.63329 91.267 1.52912 90.8409 1.52912C90.4148 1.52912 90.0265 1.63329 89.6761 1.84162C89.3281 2.04995 89.05 2.32931 88.8416 2.67969C88.6333 3.0277 88.5291 3.41477 88.5291 3.84091C88.5291 4.26705 88.6333 4.6553 88.8416 5.00568C89.05 5.35369 89.3281 5.63187 89.6761 5.8402C90.0265 6.04853 90.4148 6.1527 90.8409 6.1527Z" fill="#191918"/>
</svg>
